<mxfile host="app.diagrams.net" modified="2021-10-08T23:20:52.519Z" agent="5.0 (Windows NT 10.0; Win64; x64) AppleWebKit/537.36 (KHTML, like Gecko) Chrome/94.0.4606.81 Safari/537.36" etag="GbubB1ZRVCwBF4yZe5ma" version="14.9.8" type="github">
  <diagram id="R2lEEEUBdFMjLlhIrx00" name="Page-1">
    <mxGraphModel dx="868" dy="492" grid="1" gridSize="10" guides="1" tooltips="1" connect="1" arrows="1" fold="1" page="1" pageScale="1" pageWidth="850" pageHeight="1100" math="0" shadow="0" extFonts="Permanent Marker^https://fonts.googleapis.com/css?family=Permanent+Marker">
      <root>
        <mxCell id="0" />
        <mxCell id="1" parent="0" />
        <mxCell id="roe-wDjQsC2gKYWecVB8-1" value="Paciente" style="shape=table;startSize=30;container=1;collapsible=1;childLayout=tableLayout;fixedRows=1;rowLines=0;fontStyle=1;align=center;resizeLast=1;" vertex="1" parent="1">
          <mxGeometry x="397.5" y="470" width="250" height="120" as="geometry" />
        </mxCell>
        <mxCell id="roe-wDjQsC2gKYWecVB8-2" value="" style="shape=partialRectangle;collapsible=0;dropTarget=0;pointerEvents=0;fillColor=none;points=[[0,0.5],[1,0.5]];portConstraint=eastwest;top=0;left=0;right=0;bottom=1;" vertex="1" parent="roe-wDjQsC2gKYWecVB8-1">
          <mxGeometry y="30" width="250" height="30" as="geometry" />
        </mxCell>
        <mxCell id="roe-wDjQsC2gKYWecVB8-3" value="PK" style="shape=partialRectangle;overflow=hidden;connectable=0;fillColor=none;top=0;left=0;bottom=0;right=0;fontStyle=1;" vertex="1" parent="roe-wDjQsC2gKYWecVB8-2">
          <mxGeometry width="35" height="30" as="geometry">
            <mxRectangle width="35" height="30" as="alternateBounds" />
          </mxGeometry>
        </mxCell>
        <mxCell id="roe-wDjQsC2gKYWecVB8-4" value="CPF" style="shape=partialRectangle;overflow=hidden;connectable=0;fillColor=none;top=0;left=0;bottom=0;right=0;align=left;spacingLeft=6;fontStyle=5;" vertex="1" parent="roe-wDjQsC2gKYWecVB8-2">
          <mxGeometry x="35" width="215" height="30" as="geometry">
            <mxRectangle width="215" height="30" as="alternateBounds" />
          </mxGeometry>
        </mxCell>
        <mxCell id="roe-wDjQsC2gKYWecVB8-5" value="" style="shape=partialRectangle;collapsible=0;dropTarget=0;pointerEvents=0;fillColor=none;points=[[0,0.5],[1,0.5]];portConstraint=eastwest;top=0;left=0;right=0;bottom=0;" vertex="1" parent="roe-wDjQsC2gKYWecVB8-1">
          <mxGeometry y="60" width="250" height="20" as="geometry" />
        </mxCell>
        <mxCell id="roe-wDjQsC2gKYWecVB8-6" value="" style="shape=partialRectangle;overflow=hidden;connectable=0;fillColor=none;top=0;left=0;bottom=0;right=0;" vertex="1" parent="roe-wDjQsC2gKYWecVB8-5">
          <mxGeometry width="35" height="20" as="geometry">
            <mxRectangle width="35" height="20" as="alternateBounds" />
          </mxGeometry>
        </mxCell>
        <mxCell id="roe-wDjQsC2gKYWecVB8-7" value="Nome do paciente" style="shape=partialRectangle;overflow=hidden;connectable=0;fillColor=none;top=0;left=0;bottom=0;right=0;align=left;spacingLeft=6;" vertex="1" parent="roe-wDjQsC2gKYWecVB8-5">
          <mxGeometry x="35" width="215" height="20" as="geometry">
            <mxRectangle width="215" height="20" as="alternateBounds" />
          </mxGeometry>
        </mxCell>
        <mxCell id="roe-wDjQsC2gKYWecVB8-8" value="" style="shape=partialRectangle;collapsible=0;dropTarget=0;pointerEvents=0;fillColor=none;points=[[0,0.5],[1,0.5]];portConstraint=eastwest;top=0;left=0;right=0;bottom=0;" vertex="1" parent="roe-wDjQsC2gKYWecVB8-1">
          <mxGeometry y="80" width="250" height="30" as="geometry" />
        </mxCell>
        <mxCell id="roe-wDjQsC2gKYWecVB8-9" value="" style="shape=partialRectangle;overflow=hidden;connectable=0;fillColor=none;top=0;left=0;bottom=0;right=0;" vertex="1" parent="roe-wDjQsC2gKYWecVB8-8">
          <mxGeometry width="35" height="30" as="geometry">
            <mxRectangle width="35" height="30" as="alternateBounds" />
          </mxGeometry>
        </mxCell>
        <mxCell id="roe-wDjQsC2gKYWecVB8-10" value="Telefone" style="shape=partialRectangle;overflow=hidden;connectable=0;fillColor=none;top=0;left=0;bottom=0;right=0;align=left;spacingLeft=6;" vertex="1" parent="roe-wDjQsC2gKYWecVB8-8">
          <mxGeometry x="35" width="215" height="30" as="geometry">
            <mxRectangle width="215" height="30" as="alternateBounds" />
          </mxGeometry>
        </mxCell>
        <mxCell id="roe-wDjQsC2gKYWecVB8-11" value="Consulta" style="shape=table;startSize=30;container=1;collapsible=1;childLayout=tableLayout;fixedRows=1;rowLines=0;fontStyle=1;align=center;resizeLast=1;" vertex="1" parent="1">
          <mxGeometry x="110" y="40" width="240" height="140" as="geometry" />
        </mxCell>
        <mxCell id="roe-wDjQsC2gKYWecVB8-12" value="" style="shape=partialRectangle;collapsible=0;dropTarget=0;pointerEvents=0;fillColor=none;points=[[0,0.5],[1,0.5]];portConstraint=eastwest;top=0;left=0;right=0;bottom=1;" vertex="1" parent="roe-wDjQsC2gKYWecVB8-11">
          <mxGeometry y="30" width="240" height="60" as="geometry" />
        </mxCell>
        <mxCell id="roe-wDjQsC2gKYWecVB8-13" value="PK&#xa;FK&#xa;FK" style="shape=partialRectangle;overflow=hidden;connectable=0;fillColor=none;top=0;left=0;bottom=0;right=0;fontStyle=1;" vertex="1" parent="roe-wDjQsC2gKYWecVB8-12">
          <mxGeometry width="30" height="60" as="geometry">
            <mxRectangle width="30" height="60" as="alternateBounds" />
          </mxGeometry>
        </mxCell>
        <mxCell id="roe-wDjQsC2gKYWecVB8-14" value="Data da consulta&#xa;CRM&#xa;CPF" style="shape=partialRectangle;overflow=hidden;connectable=0;fillColor=none;top=0;left=0;bottom=0;right=0;align=left;spacingLeft=6;fontStyle=5;" vertex="1" parent="roe-wDjQsC2gKYWecVB8-12">
          <mxGeometry x="30" width="210" height="60" as="geometry">
            <mxRectangle width="210" height="60" as="alternateBounds" />
          </mxGeometry>
        </mxCell>
        <mxCell id="roe-wDjQsC2gKYWecVB8-15" value="" style="shape=partialRectangle;collapsible=0;dropTarget=0;pointerEvents=0;fillColor=none;points=[[0,0.5],[1,0.5]];portConstraint=eastwest;top=0;left=0;right=0;bottom=0;" vertex="1" parent="roe-wDjQsC2gKYWecVB8-11">
          <mxGeometry y="90" width="240" height="30" as="geometry" />
        </mxCell>
        <mxCell id="roe-wDjQsC2gKYWecVB8-16" value="" style="shape=partialRectangle;overflow=hidden;connectable=0;fillColor=none;top=0;left=0;bottom=0;right=0;" vertex="1" parent="roe-wDjQsC2gKYWecVB8-15">
          <mxGeometry width="30" height="30" as="geometry">
            <mxRectangle width="30" height="30" as="alternateBounds" />
          </mxGeometry>
        </mxCell>
        <mxCell id="roe-wDjQsC2gKYWecVB8-17" value="" style="shape=partialRectangle;overflow=hidden;connectable=0;fillColor=none;top=0;left=0;bottom=0;right=0;align=left;spacingLeft=6;" vertex="1" parent="roe-wDjQsC2gKYWecVB8-15">
          <mxGeometry x="30" width="210" height="30" as="geometry">
            <mxRectangle width="210" height="30" as="alternateBounds" />
          </mxGeometry>
        </mxCell>
        <mxCell id="roe-wDjQsC2gKYWecVB8-18" value="" style="shape=partialRectangle;collapsible=0;dropTarget=0;pointerEvents=0;fillColor=none;points=[[0,0.5],[1,0.5]];portConstraint=eastwest;top=0;left=0;right=0;bottom=0;" vertex="1" parent="roe-wDjQsC2gKYWecVB8-11">
          <mxGeometry y="120" width="240" height="20" as="geometry" />
        </mxCell>
        <mxCell id="roe-wDjQsC2gKYWecVB8-19" value="" style="shape=partialRectangle;overflow=hidden;connectable=0;fillColor=none;top=0;left=0;bottom=0;right=0;" vertex="1" parent="roe-wDjQsC2gKYWecVB8-18">
          <mxGeometry width="30" height="20" as="geometry">
            <mxRectangle width="30" height="20" as="alternateBounds" />
          </mxGeometry>
        </mxCell>
        <mxCell id="roe-wDjQsC2gKYWecVB8-20" value="" style="shape=partialRectangle;overflow=hidden;connectable=0;fillColor=none;top=0;left=0;bottom=0;right=0;align=left;spacingLeft=6;" vertex="1" parent="roe-wDjQsC2gKYWecVB8-18">
          <mxGeometry x="30" width="210" height="20" as="geometry">
            <mxRectangle width="210" height="20" as="alternateBounds" />
          </mxGeometry>
        </mxCell>
        <mxCell id="roe-wDjQsC2gKYWecVB8-21" value="Medico" style="shape=table;startSize=30;container=1;collapsible=1;childLayout=tableLayout;fixedRows=1;rowLines=0;fontStyle=1;align=center;resizeLast=1;" vertex="1" parent="1">
          <mxGeometry x="425" y="210" width="255" height="120" as="geometry" />
        </mxCell>
        <mxCell id="roe-wDjQsC2gKYWecVB8-22" value="" style="shape=partialRectangle;collapsible=0;dropTarget=0;pointerEvents=0;fillColor=none;points=[[0,0.5],[1,0.5]];portConstraint=eastwest;top=0;left=0;right=0;bottom=1;" vertex="1" parent="roe-wDjQsC2gKYWecVB8-21">
          <mxGeometry y="30" width="255" height="30" as="geometry" />
        </mxCell>
        <mxCell id="roe-wDjQsC2gKYWecVB8-23" value="PK" style="shape=partialRectangle;overflow=hidden;connectable=0;fillColor=none;top=0;left=0;bottom=0;right=0;fontStyle=1;" vertex="1" parent="roe-wDjQsC2gKYWecVB8-22">
          <mxGeometry width="35" height="30" as="geometry">
            <mxRectangle width="35" height="30" as="alternateBounds" />
          </mxGeometry>
        </mxCell>
        <mxCell id="roe-wDjQsC2gKYWecVB8-24" value="CRM" style="shape=partialRectangle;overflow=hidden;connectable=0;fillColor=none;top=0;left=0;bottom=0;right=0;align=left;spacingLeft=6;fontStyle=5;" vertex="1" parent="roe-wDjQsC2gKYWecVB8-22">
          <mxGeometry x="35" width="220" height="30" as="geometry">
            <mxRectangle width="220" height="30" as="alternateBounds" />
          </mxGeometry>
        </mxCell>
        <mxCell id="roe-wDjQsC2gKYWecVB8-25" value="" style="shape=partialRectangle;collapsible=0;dropTarget=0;pointerEvents=0;fillColor=none;points=[[0,0.5],[1,0.5]];portConstraint=eastwest;top=0;left=0;right=0;bottom=0;" vertex="1" parent="roe-wDjQsC2gKYWecVB8-21">
          <mxGeometry y="60" width="255" height="30" as="geometry" />
        </mxCell>
        <mxCell id="roe-wDjQsC2gKYWecVB8-26" value="" style="shape=partialRectangle;overflow=hidden;connectable=0;fillColor=none;top=0;left=0;bottom=0;right=0;" vertex="1" parent="roe-wDjQsC2gKYWecVB8-25">
          <mxGeometry width="35" height="30" as="geometry">
            <mxRectangle width="35" height="30" as="alternateBounds" />
          </mxGeometry>
        </mxCell>
        <mxCell id="roe-wDjQsC2gKYWecVB8-27" value="Nome do Médico" style="shape=partialRectangle;overflow=hidden;connectable=0;fillColor=none;top=0;left=0;bottom=0;right=0;align=left;spacingLeft=6;" vertex="1" parent="roe-wDjQsC2gKYWecVB8-25">
          <mxGeometry x="35" width="220" height="30" as="geometry">
            <mxRectangle width="220" height="30" as="alternateBounds" />
          </mxGeometry>
        </mxCell>
        <mxCell id="roe-wDjQsC2gKYWecVB8-28" value="Tipo de Especialidade" style="shape=table;startSize=30;container=1;collapsible=1;childLayout=tableLayout;fixedRows=1;rowLines=0;fontStyle=1;align=center;resizeLast=1;" vertex="1" parent="1">
          <mxGeometry x="570" y="350" width="250" height="100" as="geometry" />
        </mxCell>
        <mxCell id="roe-wDjQsC2gKYWecVB8-29" value="" style="shape=partialRectangle;collapsible=0;dropTarget=0;pointerEvents=0;fillColor=none;points=[[0,0.5],[1,0.5]];portConstraint=eastwest;top=0;left=0;right=0;bottom=1;" vertex="1" parent="roe-wDjQsC2gKYWecVB8-28">
          <mxGeometry y="30" width="250" height="30" as="geometry" />
        </mxCell>
        <mxCell id="roe-wDjQsC2gKYWecVB8-30" value="PK" style="shape=partialRectangle;overflow=hidden;connectable=0;fillColor=none;top=0;left=0;bottom=0;right=0;fontStyle=1;" vertex="1" parent="roe-wDjQsC2gKYWecVB8-29">
          <mxGeometry width="30" height="30" as="geometry">
            <mxRectangle width="30" height="30" as="alternateBounds" />
          </mxGeometry>
        </mxCell>
        <mxCell id="roe-wDjQsC2gKYWecVB8-31" value="Codigo do Tipo de Especialidade" style="shape=partialRectangle;overflow=hidden;connectable=0;fillColor=none;top=0;left=0;bottom=0;right=0;align=left;spacingLeft=6;fontStyle=5;" vertex="1" parent="roe-wDjQsC2gKYWecVB8-29">
          <mxGeometry x="30" width="220" height="30" as="geometry">
            <mxRectangle width="220" height="30" as="alternateBounds" />
          </mxGeometry>
        </mxCell>
        <mxCell id="roe-wDjQsC2gKYWecVB8-32" value="" style="shape=partialRectangle;collapsible=0;dropTarget=0;pointerEvents=0;fillColor=none;points=[[0,0.5],[1,0.5]];portConstraint=eastwest;top=0;left=0;right=0;bottom=0;" vertex="1" parent="roe-wDjQsC2gKYWecVB8-28">
          <mxGeometry y="60" width="250" height="30" as="geometry" />
        </mxCell>
        <mxCell id="roe-wDjQsC2gKYWecVB8-33" value="" style="shape=partialRectangle;overflow=hidden;connectable=0;fillColor=none;top=0;left=0;bottom=0;right=0;" vertex="1" parent="roe-wDjQsC2gKYWecVB8-32">
          <mxGeometry width="30" height="30" as="geometry">
            <mxRectangle width="30" height="30" as="alternateBounds" />
          </mxGeometry>
        </mxCell>
        <mxCell id="roe-wDjQsC2gKYWecVB8-34" value="Nome da Especialidade" style="shape=partialRectangle;overflow=hidden;connectable=0;fillColor=none;top=0;left=0;bottom=0;right=0;align=left;spacingLeft=6;" vertex="1" parent="roe-wDjQsC2gKYWecVB8-32">
          <mxGeometry x="30" width="220" height="30" as="geometry">
            <mxRectangle width="220" height="30" as="alternateBounds" />
          </mxGeometry>
        </mxCell>
        <mxCell id="roe-wDjQsC2gKYWecVB8-35" style="edgeStyle=orthogonalEdgeStyle;rounded=0;orthogonalLoop=1;jettySize=auto;html=1;" edge="1" parent="1" source="roe-wDjQsC2gKYWecVB8-29">
          <mxGeometry relative="1" as="geometry">
            <mxPoint x="520" y="330" as="targetPoint" />
            <Array as="points">
              <mxPoint x="520" y="395" />
            </Array>
          </mxGeometry>
        </mxCell>
        <mxCell id="roe-wDjQsC2gKYWecVB8-36" style="edgeStyle=orthogonalEdgeStyle;rounded=0;orthogonalLoop=1;jettySize=auto;html=1;" edge="1" parent="1" source="roe-wDjQsC2gKYWecVB8-5">
          <mxGeometry relative="1" as="geometry">
            <mxPoint x="220" y="180" as="targetPoint" />
          </mxGeometry>
        </mxCell>
        <mxCell id="roe-wDjQsC2gKYWecVB8-37" style="edgeStyle=orthogonalEdgeStyle;rounded=0;orthogonalLoop=1;jettySize=auto;html=1;" edge="1" parent="1" source="roe-wDjQsC2gKYWecVB8-25">
          <mxGeometry relative="1" as="geometry">
            <mxPoint x="250" y="180" as="targetPoint" />
            <Array as="points">
              <mxPoint x="250" y="285" />
            </Array>
          </mxGeometry>
        </mxCell>
        <mxCell id="roe-wDjQsC2gKYWecVB8-38" value="Codigo do Tipo de Especialidade" style="text;html=1;align=center;verticalAlign=middle;resizable=0;points=[];autosize=1;strokeColor=none;fillColor=none;" vertex="1" parent="1">
          <mxGeometry x="457.5" y="300" width="190" height="20" as="geometry" />
        </mxCell>
        <mxCell id="roe-wDjQsC2gKYWecVB8-39" value="FK1" style="text;html=1;align=center;verticalAlign=middle;resizable=0;points=[];autosize=1;strokeColor=none;fillColor=none;" vertex="1" parent="1">
          <mxGeometry x="425" y="300" width="40" height="20" as="geometry" />
        </mxCell>
      </root>
    </mxGraphModel>
  </diagram>
</mxfile>
